<?xml version="1.0" encoding="UTF-8" standalone="no"?>
<svg width="21px" height="21px" viewBox="0 0 21 21" version="1.1" xmlns="http://www.w3.org/2000/svg" xmlns:xlink="http://www.w3.org/1999/xlink" xmlns:sketch="http://www.bohemiancoding.com/sketch/ns">
    <!-- Generator: Sketch 3.3.3 (12072) - http://www.bohemiancoding.com/sketch -->
    <title>search</title>
    <desc>Created with Sketch.</desc>
    <defs></defs>
    <g id="Homepage" stroke="none" stroke-width="1" fill="none" fill-rule="evenodd" sketch:type="MSPage">
        <g id="xLarge-Copy-3" sketch:type="MSArtboardGroup" transform="translate(-1438.000000, -47.000000)" fill="#FFFFFF">
            <g id="Nav-Header-Copy-8" sketch:type="MSLayerGroup" transform="translate(0.500000, 0.012593)">
                <g id="search" transform="translate(1437.000000, 46.641221)" sketch:type="MSShapeGroup">
                    <path d="M9.34108796,17.8566803 C4.56869213,17.8566803 0.686226852,14.0044838 0.686226852,9.26915023 C0.686226852,4.5331849 4.56869213,0.680356764 9.34108796,0.680356764 C14.1134838,0.680356764 17.9959491,4.5331849 17.9959491,9.26915023 C17.9953125,14.0051156 14.1134838,17.8566803 9.34108796,17.8566803 L9.34108796,17.8566803 Z M9.34108796,1.94441794 C5.27083333,1.94441794 1.959375,5.23059796 1.959375,9.26978195 C1.959375,13.3083342 5.27083333,16.5938825 9.34108796,16.5938825 C13.4113426,16.5938825 16.7228009,13.3083342 16.7228009,9.26978195 C16.7221644,5.23059796 13.410706,1.94441794 9.34108796,1.94441794 L9.34108796,1.94441794 Z" id="Shape"></path>
                    <path d="M20.6771991,21.1510726 C20.5142361,21.1510726 20.3512731,21.0891645 20.2271412,20.9659802 L14.6698495,15.4511106 C14.4209491,15.2041101 14.4209491,14.8048664 14.6698495,14.557866 C14.91875,14.3108655 15.3210648,14.3108655 15.5699653,14.557866 L21.1272569,20.0727355 C21.3761574,20.319736 21.3761574,20.7189797 21.1272569,20.9659802 C21.003125,21.0891645 20.840162,21.1510726 20.6771991,21.1510726 L20.6771991,21.1510726 Z" id="Shape"></path>
                </g>
            </g>
        </g>
    </g>
</svg>